# xmcd
#
# Track frame offsets: 
#        150
#        16452
#        34616
#        54745
#        75525
#        101789
#        128741
#        138983
#
# Disc length: 2071 seconds
#
# Revision: 0
# Processed by: cddbd v1.5PL3 Copyright (c) Steve Scherf et al.
# Submitted via: ExactAudioCopy v0.90b4
#
DISCID=63081508
DTITLE=Tonchi McIntosh and Andrew Hull - Fire Stone
DYEAR=2002
DGENRE=Bush Roots
TTITLE0=River Roads
TTITLE1=Fire Stone
TTITLE2=Bush Of Australia
TTITLE3=Reason
TTITLE4=World Of Men
TTITLE5=Jane Eliza
TTITLE6=Gumcutters
TTITLE7=Masters Of Design
EXTD=
EXTT0=
EXTT1=
EXTT2=
EXTT3=
EXTT4=
EXTT5=
EXTT6=
EXTT7=
PLAYORDER=
